HIERARCHY
ROOT Hips
{
	OFFSET 0.000000 0.000000 0.000000
	CHANNELS 6 Xposition Yposition Zposition Zrotation Yrotation Xrotation 
	JOINT LHipJoint
	{
		OFFSET 0.000000 0.000000 0.000000
		CHANNELS 3 Zrotation Yrotation Xrotation
		JOINT LeftUpLeg
		{
			OFFSET 1.363060 -1.794630 0.839290
			CHANNELS 3 Zrotation Yrotation Xrotation
			JOINT LeftLeg
			{
				OFFSET 2.448110 -6.726130 0.000000
				CHANNELS 3 Zrotation Yrotation Xrotation
				JOINT LeftFoot
				{
					OFFSET 2.562200 -7.039590 0.000000
					CHANNELS 3 Zrotation Yrotation Xrotation
					JOINT LeftToeBase
					{
						OFFSET 0.157640 -0.433110 2.322550
						CHANNELS 3 Zrotation Yrotation Xrotation
						End Site
						{
							OFFSET 0.000000 0.000000 0.000000
						}
					}
				}
			}
		}
	}
	JOINT RHipJoint
	{
		OFFSET 0.000000 0.000000 0.000000
		CHANNELS 3 Zrotation Yrotation Xrotation
		JOINT RightUpLeg
		{
			OFFSET -1.305520 -1.794630 0.839290
			CHANNELS 3 Zrotation Yrotation Xrotation
			JOINT RightLeg
			{
				OFFSET -2.542530 -6.985550 0.000000
				CHANNELS 3 Zrotation Yrotation Xrotation
				JOINT RightFoot
				{
					OFFSET -2.568260 -7.056230 0.000000
					CHANNELS 3 Zrotation Yrotation Xrotation
					JOINT RightToeBase
					{
						OFFSET -0.164730 -0.452590 2.363150
						CHANNELS 3 Zrotation Yrotation Xrotation
						End Site
						{
							OFFSET 0.000000 0.000000 0.000000
						}
					}
				}
			}
		}
	}
	JOINT LowerBack
	{
		OFFSET 0.000000 0.000000 0.000000
		CHANNELS 3 Zrotation Yrotation Xrotation
		JOINT Spine
		{
			OFFSET 0.028270 2.035590 -0.193380
			CHANNELS 3 Zrotation Yrotation Xrotation
			JOINT Spine1
			{
				OFFSET 0.056720 2.048850 -0.042750
				CHANNELS 3 Zrotation Yrotation Xrotation
				JOINT Neck
				{
					OFFSET 0.000000 0.000000 0.000000
					CHANNELS 3 Zrotation Yrotation Xrotation
					JOINT Neck1
					{
						OFFSET -0.054170 1.746240 0.172020
						CHANNELS 3 Zrotation Yrotation Xrotation
						JOINT Head
						{
							OFFSET 0.104070 1.761360 -0.123970
							CHANNELS 3 Zrotation Yrotation Xrotation
							End Site
							{
								OFFSET 0.000000 0.000000 0.000000
							}
						}
					}
				}
				JOINT LeftShoulder
				{
					OFFSET 0.000000 0.000000 0.000000
					CHANNELS 3 Zrotation Yrotation Xrotation
					JOINT LeftArm
					{
						OFFSET 3.362410 1.200890 -0.311210
						CHANNELS 3 Zrotation Yrotation Xrotation
						JOINT LeftForeArm
						{
							OFFSET 4.983000 -0.000000 -0.000000
							CHANNELS 3 Zrotation Yrotation Xrotation
							JOINT LeftHand
							{
								OFFSET 3.483560 -0.000000 -0.000000
								CHANNELS 3 Zrotation Yrotation Xrotation
								JOINT LeftFingerBase
								{
									OFFSET 0.000000 0.000000 0.000000
									CHANNELS 3 Zrotation Yrotation Xrotation
									JOINT LeftHandIndex1
									{
										OFFSET 0.715260 -0.000000 -0.000000
										CHANNELS 3 Zrotation Yrotation Xrotation
										End Site
										{
											OFFSET 0.000000 0.000000 0.000000
										}
									}
								}
								JOINT LThumb
								{
									OFFSET 0.000000 0.000000 0.000000
									CHANNELS 3 Zrotation Yrotation Xrotation
									End Site
									{
										OFFSET 0.000000 0.000000 0.000000
									}
								}
							}
						}
					}
				}
				JOINT RightShoulder
				{
					OFFSET 0.000000 0.000000 0.000000
					CHANNELS 3 Zrotation Yrotation Xrotation
					JOINT RightArm
					{
						OFFSET -3.136600 1.374050 -0.404650
						CHANNELS 3 Zrotation Yrotation Xrotation
						JOINT RightForeArm
						{
							OFFSET -5.241900 -0.000000 -0.000000
							CHANNELS 3 Zrotation Yrotation Xrotation
							JOINT RightHand
							{
								OFFSET -3.444170 -0.000000 -0.000000
								CHANNELS 3 Zrotation Yrotation Xrotation
								JOINT RightFingerBase
								{
									OFFSET 0.000000 0.000000 0.000000
									CHANNELS 3 Zrotation Yrotation Xrotation
									JOINT RightHandIndex1
									{
										OFFSET -0.622530 -0.000000 -0.000000
										CHANNELS 3 Zrotation Yrotation Xrotation
										End Site
										{
											OFFSET 0.000000 0.000000 0.000000
										}
									}
								}
								JOINT RThumb
								{
									OFFSET 0.000000 0.000000 0.000000
									CHANNELS 3 Zrotation Yrotation Xrotation
									End Site
									{
										OFFSET 0.000000 0.000000 0.000000
									}
								}
							}
						}
					}
				}
			}
		}
	}
}
MOTION
Frames: 8
Frame Time: 0.008333
-5.167737 18.099151 -0.203788 11.247766 20.746930 24.488204 -1.041242 1.855005 1.413599 -13.586204 -11.561345 -19.337964 0.049217 6.721037 21.195581 -1.608066 8.139881 2.404720 1.442800 -7.593600 -21.486400 -0.856839 -1.473837 0.321689 4.772786 5.671253 -40.060419 -2.049937 -11.058531 30.855050 1.579355 -10.211667 -9.323287 -0.112300 -2.160600 5.949700 3.211651 -1.186627 12.868834 5.974055 -0.990904 4.700645 6.866193 -0.121138 0.292054 -8.357945 -8.158696 -9.559441 7.651044 -10.658376 22.645816 2.867300 -4.655500 12.610000 -9.482849 -1.739109 -0.365264 -85.949650 -32.602901 95.740146 51.735931 -53.903301 -29.827076 1.061647 -0.380119 -75.925536 27.561933 54.781217 23.490700 -7.125000 0.000000 0.000000 -85.213800 82.149200 -77.271500 8.726481 3.712287 -0.901371 44.381420 40.987361 -10.962209 -18.950825 23.697809 -5.731378 2.352211 1.727621 -26.161002 -36.284944 -19.908084 15.417400 7.125000 0.000000 0.000000 -11.628700 -54.511900 2.745600 
-5.148300 18.104962 -0.232342 11.319110 21.078729 24.505580 -1.022925 1.838470 1.383776 -13.351149 -11.599550 -19.633357 0.062917 6.759875 21.236937 -1.707919 8.613258 2.670959 1.552900 -7.865100 -22.305200 -0.859731 -1.475122 0.330516 4.677908 5.540575 -39.964847 -2.019147 -11.007464 30.689258 1.652776 -10.538815 -9.395897 -0.109300 -2.131800 5.870100 3.307121 -1.055818 12.764210 6.051715 -0.816361 4.664821 6.929199 -0.036163 0.290426 -8.454654 -8.325221 -9.351968 7.614386 -10.867772 22.573080 2.857900 -4.767500 12.565700 -9.502661 -1.717671 -0.418799 -85.386149 -31.976985 94.617050 51.053006 -53.650940 -29.259043 1.079268 -0.405890 -76.679436 29.228473 54.649415 24.978400 -7.125000 0.000000 0.000000 -86.793000 82.787500 -79.508800 8.729343 3.678700 -0.807993 45.495707 41.456975 -9.299585 -19.009597 23.661316 -5.734703 2.329768 1.766803 -26.874636 -35.853470 -20.207151 15.409200 7.125000 0.000000 0.000000 -11.146300 -54.776000 2.701600 
-5.129564 18.102959 -0.261598 11.383839 21.561094 24.414759 -1.013311 1.844317 1.362951 -13.057289 -11.738125 -19.719178 0.069162 6.764759 21.165721 -1.896501 9.504737 3.280985 1.369200 -7.405700 -20.922900 -0.854613 -1.484909 0.345688 4.617217 5.358450 -39.756371 -1.999611 -10.972107 30.584959 1.723218 -10.861282 -9.565449 -0.103500 -2.074300 5.710900 3.477437 -0.941739 12.770219 6.160235 -0.641040 4.693745 6.983914 0.048473 0.306979 -8.601541 -8.570282 -9.319640 7.664257 -11.174392 22.475561 2.864700 -4.909100 12.570700 -9.519208 -1.694803 -0.465383 -84.962724 -31.503811 93.448841 50.277001 -53.360678 -28.615266 1.099989 -0.449515 -76.884272 31.023339 54.348893 26.552900 -7.125000 0.000000 0.000000 -87.857100 83.509600 -81.315500 8.740490 3.661630 -0.723143 46.413084 41.884218 -7.710350 -18.944815 23.496172 -5.665268 2.298107 1.783615 -27.249491 -34.876113 -20.387429 15.034500 7.125000 0.000000 0.000000 -10.012700 -54.790100 2.425900 
-5.104015 18.110373 -0.282237 11.542033 21.987085 24.305106 -1.008686 1.854077 1.346769 -12.928488 -11.865290 -19.721437 0.067906 6.754948 21.075715 -2.083358 10.351971 3.497327 1.011600 -6.399200 -17.947300 -0.853004 -1.500267 0.364001 4.459778 5.106495 -39.478942 -1.992717 -10.954904 30.533363 1.771675 -11.075086 -9.700432 -0.107100 -2.109900 5.809300 3.549218 -0.815382 12.695483 6.250304 -0.469785 4.709439 7.077285 0.127797 0.358506 -8.696757 -8.788629 -9.198753 7.576629 -11.447887 22.439003 2.821700 -5.049000 12.561700 -9.543377 -1.671218 -0.516145 -84.534679 -30.888411 92.368714 49.440152 -53.050458 -27.934584 1.116522 -0.512980 -77.409682 33.244425 52.541288 28.097300 -7.125000 0.000000 0.000000 -75.243000 84.700100 -70.037200 8.759306 3.620021 -0.626311 47.431818 42.022393 -5.779035 -18.946989 23.444992 -5.613105 2.240060 1.788488 -27.697305 -33.606453 -20.342789 14.364700 7.125000 0.000000 0.000000 -8.531100 -54.489900 2.000200 
-5.067947 18.121594 -0.291355 11.829553 21.941824 24.181299 -1.004676 1.858137 1.338874 -13.201148 -11.627963 -19.734354 0.074874 6.765129 21.081892 -2.206368 10.908618 3.564004 0.886600 -6.002300 -16.791000 -0.858038 -1.513496 0.372946 4.009872 5.094897 -39.131270 -1.988646 -10.939020 30.470220 1.787209 -11.125636 -9.716625 -0.108100 -2.119800 5.837000 3.411034 -0.508289 12.583149 6.171817 -0.103725 4.768839 7.042237 0.300499 0.451627 -8.481111 -9.001929 -9.038619 7.388354 -11.773470 22.369248 2.684200 -5.191900 12.502400 -9.576020 -1.648203 -0.574894 -83.983854 -29.947285 91.374239 48.667286 -52.715239 -27.290799 1.134122 -0.442677 -78.149392 31.547599 55.609325 27.385600 -7.125000 0.000000 0.000000 -92.627700 -83.294500 99.390500 8.778387 3.552875 -0.513444 48.612038 42.050683 -4.001126 -19.010511 23.477759 -5.595682 2.172416 1.807345 -28.244651 -32.414000 -20.400009 13.819500 7.125000 0.000000 0.000000 -7.146600 -54.342200 1.647000 
-5.048710 18.122696 -0.323816 12.115046 22.485836 24.036744 -0.997105 1.866516 1.324345 -13.235765 -11.636947 -19.794623 0.084230 6.776269 21.066323 -2.256547 11.236069 4.261470 0.806600 -5.731600 -16.007600 -0.859270 -1.527029 0.392583 3.713809 4.865658 -38.751448 -1.974809 -10.907848 30.380299 1.835413 -11.364315 -10.071923 -0.129200 -2.316700 6.381800 3.515111 -0.374993 12.884085 6.165524 0.116350 4.749263 6.994139 0.414084 0.240735 -8.414148 -9.295787 -8.849861 7.440353 -12.198604 22.170554 2.645200 -5.367500 12.433500 -9.603829 -1.610212 -0.636163 -83.382682 -28.986414 90.108012 48.226863 -52.541591 -26.958307 1.119463 -0.402758 -78.308790 28.550664 54.894111 24.457500 -7.125000 0.000000 0.000000 -87.712700 82.493200 -80.127000 8.787454 3.517143 -0.400064 49.749586 42.323104 -2.556526 -18.979719 23.371492 -5.547923 2.140406 1.820821 -28.356795 -31.566686 -20.637158 13.560600 7.125000 0.000000 0.000000 -6.162200 -54.465100 1.437200 
-5.020957 18.115382 -0.369704 12.170519 23.565857 24.308759 -0.978047 1.841818 1.254908 -12.810005 -12.433045 -20.183855 0.088364 6.775916 20.934706 -2.407182 12.079301 5.213966 0.701800 -5.354700 -14.923200 -0.875125 -1.526388 0.412693 3.665442 4.497958 -38.858253 -1.950427 -10.879407 30.275456 1.925420 -11.839031 -10.646475 -0.159300 -2.571600 7.088300 4.159596 -0.418283 12.599042 6.323001 0.117947 4.594897 6.865313 0.432361 0.223391 -8.487924 -9.596955 -8.778893 7.431492 -12.596074 22.105127 2.607000 -5.546200 12.444800 -9.620146 -1.576114 -0.686953 -82.990599 -28.229755 88.753841 47.874718 -52.435961 -26.691440 1.127809 -0.529066 -77.946912 32.113565 50.971053 26.623800 -7.125000 0.000000 0.000000 -57.982900 84.057800 -52.788600 8.795693 3.493159 -0.308331 50.690714 42.667979 -0.996181 -18.895829 23.224555 -5.494855 2.112723 1.870612 -28.623507 -30.944065 -21.177098 13.601700 7.125000 0.000000 0.000000 -5.407800 -54.994700 1.330200 
-4.990099 18.121494 -0.399961 12.259651 24.063863 24.135074 -0.972142 1.849399 1.238812 -12.753396 -12.410386 -20.265362 0.104671 6.794644 20.916022 -2.476141 12.576257 6.112929 0.687000 -5.299200 -14.763800 -0.869336 -1.543562 0.434916 3.548423 4.266014 -38.531352 -1.937787 -10.848357 30.192964 1.999494 -12.160392 -10.815869 -0.153700 -2.526000 6.961600 4.357836 -0.322026 12.640099 6.444474 0.278709 4.623385 6.928093 0.511788 0.226926 -8.599854 -9.819373 -8.652739 7.430014 -12.880558 22.062835 2.596900 -5.682300 12.442700 -9.639758 -1.547351 -0.736981 -82.576055 -27.528168 87.401200 47.447489 -52.227929 -26.347498 1.122193 -0.404241 -77.691143 26.788007 54.514750 22.786300 -7.125000 0.000000 0.000000 -82.668800 81.918700 -74.501700 8.806948 3.464990 -0.210600 51.680726 43.067279 0.639455 -18.803091 23.057255 -5.425548 2.070783 1.914594 -28.860355 -29.972877 -21.651050 13.419500 7.125000 0.000000 0.000000 -4.238800 -55.379100 1.081400 
